<?xml version="1.0" standalone="no"?>
<!DOCTYPE svg PUBLIC "-//W3C//DTD SVG 20010904//EN"
 "http://www.w3.org/TR/2001/REC-SVG-20010904/DTD/svg10.dtd">
<svg version="1.0" xmlns="http://www.w3.org/2000/svg"
 width="700.000000pt" height="700.000000pt" viewBox="0 0 700.000000 700.000000"
 preserveAspectRatio="xMidYMid meet">
<metadata>
Created by potrace 1.14, written by Peter Selinger 2001-2017
</metadata>
<g transform="translate(0.000000,700.000000) scale(0.100000,-0.100000)"
fill="#000000" stroke="none">
<path d="M3205 6994 c-622 -66 -1139 -246 -1630 -568 -777 -511 -1318 -1305
-1504 -2209 -57 -279 -66 -373 -66 -722 0 -342 7 -413 61 -690 164 -827 646
-1591 1329 -2105 490 -369 1025 -587 1660 -677 184 -26 715 -26 890 0 568 84
1031 256 1480 551 777 511 1318 1305 1504 2209 57 279 66 373 66 722 0 342 -7
413 -61 690 -268 1353 -1345 2444 -2695 2730 -262 55 -373 67 -694 70 -165 1
-318 1 -340 -1z m2379 -1775 c73 -27 147 -98 183 -174 24 -51 28 -73 28 -145
0 -159 115 -32 -1424 -1572 -1540 -1542 -1409 -1423 -1571 -1423 -157 0 -120
-31 -881 732 -530 532 -671 678 -689 718 -35 73 -39 191 -10 267 44 117 159
206 287 223 63 8 155 -13 215 -51 24 -14 276 -259 561 -543 l517 -516 1228
1227 c865 864 1240 1232 1270 1248 89 44 185 47 286 9z"/>
</g>
</svg>
